<svg xmlns="http://www.w3.org/2000/svg" viewBox="0 0 200 200" width="200" height="200">
  <!-- Background Circle -->
  <circle cx="100" cy="100" r="95" fill="#0a0e27" stroke="#00ff88" stroke-width="3"/>

  <!-- Inner Glow -->
  <circle cx="100" cy="100" r="85" fill="none" stroke="#00ff88" stroke-width="1" opacity="0.3"/>

  <!-- Calculator Display -->
  <rect x="40" y="35" width="120" height="35" rx="5" fill="#16213e" stroke="#00ff88" stroke-width="2"/>
  <text x="150" y="60" font-family="monospace" font-size="20" fill="#00ff88" text-anchor="end">CyberCalc</text>

  <!-- Buttons Grid -->
  <!-- Row 1 -->
  <rect x="45" y="80" width="25" height="25" rx="3" fill="#1a1a2e" stroke="#00ff88" stroke-width="1.5"/>
  <text x="57.5" y="97" font-family="monospace" font-size="16" fill="#00ff88" text-anchor="middle">7</text>

  <rect x="80" y="80" width="25" height="25" rx="3" fill="#1a1a2e" stroke="#00ff88" stroke-width="1.5"/>
  <text x="92.5" y="97" font-family="monospace" font-size="16" fill="#00ff88" text-anchor="middle">8</text>

  <rect x="115" y="80" width="25" height="25" rx="3" fill="#1a1a2e" stroke="#00ff88" stroke-width="1.5"/>
  <text x="127.5" y="97" font-family="monospace" font-size="16" fill="#00ff88" text-anchor="middle">9</text>

  <rect x="150" y="80" width="25" height="25" rx="3" fill="#e94560" stroke="#ff6b9d" stroke-width="1.5"/>
  <text x="162.5" y="97" font-family="monospace" font-size="18" fill="#fff" text-anchor="middle">รท</text>

  <!-- Row 2 -->
  <rect x="45" y="115" width="25" height="25" rx="3" fill="#1a1a2e" stroke="#00ff88" stroke-width="1.5"/>
  <text x="57.5" y="132" font-family="monospace" font-size="16" fill="#00ff88" text-anchor="middle">4</text>

  <rect x="80" y="115" width="25" height="25" rx="3" fill="#1a1a2e" stroke="#00ff88" stroke-width="1.5"/>
  <text x="92.5" y="132" font-family="monospace" font-size="16" fill="#00ff88" text-anchor="middle">5</text>

  <rect x="115" y="115" width="25" height="25" rx="3" fill="#1a1a2e" stroke="#00ff88" stroke-width="1.5"/>
  <text x="127.5" y="132" font-family="monospace" font-size="16" fill="#00ff88" text-anchor="middle">6</text>

  <rect x="150" y="115" width="25" height="25" rx="3" fill="#e94560" stroke="#ff6b9d" stroke-width="1.5"/>
  <text x="162.5" y="133" font-family="monospace" font-size="20" fill="#fff" text-anchor="middle">ร</text>

  <!-- Row 3 -->
  <rect x="45" y="150" width="25" height="25" rx="3" fill="#1a1a2e" stroke="#00ff88" stroke-width="1.5"/>
  <text x="57.5" y="167" font-family="monospace" font-size="16" fill="#00ff88" text-anchor="middle">1</text>

  <rect x="80" y="150" width="25" height="25" rx="3" fill="#1a1a2e" stroke="#00ff88" stroke-width="1.5"/>
  <text x="92.5" y="167" font-family="monospace" font-size="16" fill="#00ff88" text-anchor="middle">2</text>

  <rect x="115" y="150" width="25" height="25" rx="3" fill="#1a1a2e" stroke="#00ff88" stroke-width="1.5"/>
  <text x="127.5" y="167" font-family="monospace" font-size="16" fill="#00ff88" text-anchor="middle">3</text>

  <rect x="150" y="150" width="25" height="25" rx="3" fill="#e94560" stroke="#ff6b9d" stroke-width="1.5"/>
  <text x="162.5" y="168" font-family="monospace" font-size="20" fill="#fff" text-anchor="middle">-</text>

  <!-- Binary/Hex Indicators (Cybersecurity theme) -->
  <text x="25" y="60" font-family="monospace" font-size="8" fill="#00ff88" opacity="0.6">0x</text>
  <text x="25" y="100" font-family="monospace" font-size="8" fill="#00ff88" opacity="0.6">0b</text>

  <!-- Shield Icon (Security Symbol) -->
  <path d="M 100 10 L 90 15 L 90 25 Q 90 35 100 40 Q 110 35 110 25 L 110 15 Z"
        fill="none" stroke="#00ff88" stroke-width="1.5" opacity="0.7"/>
  <path d="M 95 22 L 98 27 L 105 18" fill="none" stroke="#00ff88" stroke-width="1.5" stroke-linecap="round"/>
</svg>
